<svg width="87" height="72" viewBox="0 0 87 72" fill="none" xmlns="http://www.w3.org/2000/svg">
<path d="M9.44447 28.3334H17V54.7778H9.44447C5.28892 54.7778 1.88892 51.3778 1.88892 47.2223V35.8889C1.88892 31.7334 5.28892 28.3334 9.44447 28.3334Z" stroke="#FF3E1D" stroke-width="3.77778" stroke-linecap="round" stroke-linejoin="round"/>
<path d="M69.8889 28.3334H77.4445C81.6 28.3334 85 31.7334 85 35.8889V47.2223C85 51.3778 81.6 54.7778 77.4445 54.7778H69.8889V28.3334Z" stroke="#FF3E1D" stroke-width="3.77778" stroke-linecap="round" stroke-linejoin="round"/>
<path d="M17 28.3334C17 13.7134 28.8244 1.88892 43.4444 1.88892C58.0644 1.88892 69.8889 13.7134 69.8889 28.3334" stroke="#FF3E1D" stroke-width="3.77778" stroke-linecap="round" stroke-linejoin="round"/>
<path d="M69.889 54.7778C69.889 63.1267 63.1267 69.8889 54.7778 69.8889H47.2223" stroke="#FF3E1D" stroke-width="3.77778" stroke-linecap="round" stroke-linejoin="round"/>
<path d="M56.0245 48.4689C49.0734 55.42 37.8156 55.42 30.8645 48.4689" stroke="#FF3E1D" stroke-width="3.77778" stroke-linecap="round" stroke-linejoin="round"/>
</svg>
