<svg width="16" height="16" viewBox="0 0 16 16" fill="none" xmlns="http://www.w3.org/2000/svg">
<path d="M5.07733 14.0001V13.3334C4.78089 13.3334 4.52733 13.2279 4.31667 13.0168C4.106 12.8056 4.00044 12.5525 4 12.2574V5.74409C4 5.44809 4.10556 5.19475 4.31667 4.98409C4.52778 4.77342 4.78111 4.66764 5.07667 4.66675H6.60267V3.05142C6.60267 2.91364 6.65378 2.79364 6.756 2.69142C6.85822 2.5892 6.978 2.53809 7.11533 2.53809H8.88467C9.02244 2.53809 9.14244 2.5892 9.24467 2.69142C9.34689 2.79364 9.398 2.91364 9.398 3.05142V4.66675H10.9233C11.2193 4.66675 11.4727 4.77231 11.6833 4.98342C11.894 5.19453 11.9996 5.44786 12 5.74342V12.2568C12 12.5528 11.8944 12.8061 11.6833 13.0168C11.4722 13.2274 11.2189 13.333 10.9233 13.3334V14.0001H10.2567V13.3334H5.74333V14.0001H5.07733ZM7.26933 4.66675H8.73067V3.20542H7.26933V4.66675ZM9.72533 8.03142C10.2862 7.88164 10.8222 7.65675 11.3333 7.35675V5.74342C11.3333 5.62386 11.2949 5.52564 11.218 5.44875C11.1411 5.37186 11.0429 5.33342 10.9233 5.33342H5.07667C4.95711 5.33342 4.85889 5.37186 4.782 5.44875C4.70511 5.52564 4.66667 5.62409 4.66667 5.74409V7.35675C5.17778 7.65675 5.714 7.88164 6.27533 8.03142C6.83667 8.1812 7.41156 8.25631 8 8.25675C8.58844 8.2572 9.16356 8.18209 9.72533 8.03142ZM7.66667 9.59009V8.91542C7.14044 8.8772 6.62711 8.79386 6.12667 8.66542C5.62622 8.53697 5.13956 8.35275 4.66667 8.11275V12.2568C4.66667 12.3763 4.70511 12.4745 4.782 12.5514C4.85889 12.6283 4.95733 12.6668 5.07733 12.6668H10.9233C11.0429 12.6668 11.1411 12.6283 11.218 12.5514C11.2949 12.4745 11.3333 12.3763 11.3333 12.2568V8.11275C10.86 8.35275 10.3733 8.53697 9.87333 8.66542C9.37333 8.79386 8.86 8.8772 8.33333 8.91542V9.59009H7.66667Z" fill="#4B5768"/>
</svg>
