<svg width="100" height="100" viewBox="0 0 100 100" fill="none" xmlns="http://www.w3.org/2000/svg">
<path d="M58.5375 23.0833C59.3809 22.8894 60.2638 22.963 61.0634 23.2938C61.8631 23.6246 62.54 24.1961 63 24.9291L67.1417 31.5416C67.4756 32.0742 67.9258 32.5243 68.4583 32.8583L75.0708 37C75.8054 37.4597 76.3783 38.137 76.7099 38.9375C77.0415 39.7381 77.1152 40.6222 76.9208 41.4666L75.1708 49.0666C75.0297 49.6808 75.0297 50.3191 75.1708 50.9333L76.9208 58.5375C77.1134 59.3807 77.0387 60.2629 76.7072 61.0618C76.3757 61.8607 75.8038 62.5366 75.0708 62.9958L68.4583 67.1416C67.9258 67.4756 67.4756 67.9257 67.1417 68.4583L63 75.0708C62.5406 75.8045 61.864 76.377 61.0642 76.7085C60.2645 77.04 59.3814 77.1142 58.5375 76.9208L50.9333 75.1708C50.3205 75.0303 49.6837 75.0303 49.0708 75.1708L41.4667 76.9208C40.6228 77.1142 39.7397 77.04 38.94 76.7085C38.1402 76.377 37.4636 75.8045 37.0042 75.0708L32.8625 68.4583C32.5274 67.9252 32.0758 67.4751 31.5417 67.1416L24.9333 63C24.1996 62.5405 23.6272 61.8639 23.2956 61.0642C22.9641 60.2644 22.8899 59.3813 23.0833 58.5375L24.8292 50.9333C24.9703 50.3191 24.9703 49.6808 24.8292 49.0666L23.0792 41.4666C22.8852 40.6217 22.9596 39.7374 23.2919 38.9368C23.6243 38.1361 24.198 37.4591 24.9333 37L31.5417 32.8583C32.0758 32.5248 32.5274 32.0747 32.8625 31.5416L37.0042 24.9291C37.464 24.1969 38.1401 23.6259 38.939 23.2952C39.7378 22.9644 40.6197 22.8904 41.4625 23.0833L49.0708 24.8291C49.6837 24.9697 50.3205 24.9697 50.9333 24.8291L58.5375 23.0833Z" stroke="#FF3E1D" stroke-width="3.5"/>
<path d="M39.6459 52.2333L48.125 60.3541L60.3542 39.6458" stroke="#FF3E1D" stroke-width="3.5" stroke-linecap="round" stroke-linejoin="round"/>
</svg>
