<svg width="92" height="79" viewBox="0 0 92 79" fill="none" xmlns="http://www.w3.org/2000/svg">
<path d="M56.7076 29.8697C56.2943 35.6068 52.0384 40.0263 47.3974 40.0263C42.7564 40.0263 38.4934 35.6082 38.0872 29.8697C37.664 23.9013 41.807 19.7131 47.3974 19.7131C52.9877 19.7131 57.1308 24.0099 56.7076 29.8697Z" stroke="#FF3E1D" stroke-width="3" stroke-linecap="round" stroke-linejoin="round"/>
<path d="M47.3974 49.0543C38.2043 49.0543 29.3638 53.6206 27.1491 62.5132C26.8557 63.6897 27.5935 64.8535 28.8024 64.8535H65.9938C67.2027 64.8535 67.9363 63.6897 67.6471 62.5132C65.4324 53.4781 56.5919 49.0543 47.3974 49.0543Z" stroke="#FF3E1D" stroke-width="3" stroke-miterlimit="10"/>
<path d="M28.2119 32.4004C27.8818 36.9822 24.4426 40.5906 20.7355 40.5906C17.0283 40.5906 13.5836 36.9836 13.2591 32.4004C12.922 27.6339 16.2694 24.2272 20.7355 24.2272C25.2016 24.2272 28.549 27.7213 28.2119 32.4004Z" stroke="#FF3E1D" stroke-width="3" stroke-linecap="round" stroke-linejoin="round"/>
<path d="M29.0583 49.3366C26.5121 48.17 23.7078 47.7214 20.7355 47.7214C13.4002 47.7214 6.33294 51.3679 4.56259 58.4705C4.32984 59.41 4.91948 60.3396 5.88436 60.3396H21.723" stroke="#FF3E1D" stroke-width="3" stroke-miterlimit="10" stroke-linecap="round"/>
<path d="M66.3004 32.4003C66.6304 36.982 70.0696 40.5904 73.7767 40.5904C77.4839 40.5904 80.9287 36.9834 81.2531 32.4003C81.5902 27.6337 78.2428 24.2271 73.7767 24.2271C69.3107 24.2271 65.9632 27.7212 66.3004 32.4003Z" stroke="#FF3E1D" stroke-width="3" stroke-linecap="round" stroke-linejoin="round"/>
<path d="M65.4537 49.3365C67.9999 48.1699 70.8043 47.7213 73.7765 47.7213C81.1118 47.7213 88.1791 51.3678 89.9494 58.4704C90.1822 59.4099 89.5925 60.3395 88.6277 60.3395H72.789" stroke="#FF3E1D" stroke-width="3" stroke-miterlimit="10" stroke-linecap="round"/>
<path d="M47.7527 1.13876L56.133 6.705C56.2242 6.7657 56.298 6.84312 56.3487 6.93142C56.3994 7.01973 56.4258 7.11662 56.4258 7.2148C56.4258 7.31297 56.3994 7.40986 56.3487 7.49817C56.298 7.58648 56.2242 7.6639 56.133 7.72459L47.7527 13.2921C47.6304 13.3734 47.4817 13.4213 47.3264 13.4295C47.1711 13.4377 47.0166 13.4058 46.8833 13.3379C46.75 13.2701 46.6442 13.1696 46.58 13.0497C46.5159 12.9299 46.4963 12.7964 46.524 12.6669L47.0685 10.1309C39.374 8.56906 36.1648 12.0689 34.9284 14.3273C34.7474 14.6568 33.9865 14.5932 33.9466 14.2326C32.9572 4.89153 40.2085 3.53856 47.0931 4.41676L46.524 1.76271C46.4966 1.63346 46.5163 1.50024 46.5805 1.38067C46.6446 1.2611 46.7502 1.1608 46.8832 1.09304C47.0162 1.02528 47.1703 0.993253 47.3253 1.00118C47.4803 1.00912 47.6288 1.05664 47.7512 1.13746" stroke="#FF3E1D" stroke-width="2" stroke-linecap="round" stroke-linejoin="round"/>
</svg>
