<svg width="75" height="68" viewBox="0 0 75 68" fill="none" xmlns="http://www.w3.org/2000/svg">
<path d="M10.8043 50.9348H35.5" stroke="#FF3E1D" stroke-width="3.08696" stroke-linecap="round" stroke-linejoin="round"/>
<path d="M16.9783 50.9348V57.1087C16.9783 58.8065 15.5891 60.1957 13.8913 60.1957H7.71739C6.01956 60.1957 4.63043 58.8065 4.63043 57.1087V36.0557C4.63043 33.6478 5.18608 31.3018 6.26652 29.1409L13.5826 14.5396C15.6817 10.3413 19.9417 7.71741 24.6339 7.71741H46.4278C51.12 7.71741 55.38 10.3722 57.4791 14.5396L64.7952 29.1409C65.0422 29.6657 65.2891 30.1905 65.4743 30.7152" stroke="#FF3E1D" stroke-width="3.08696" stroke-linecap="round" stroke-linejoin="round"/>
<path d="M69.4565 26.27H61.7391C61.7391 26.27 50.9348 29.3261 35.5 29.3261C20.0652 29.3261 9.26085 26.27 9.26085 26.27H1.54346" stroke="#FF3E1D" stroke-width="3.08696" stroke-linecap="round" stroke-linejoin="round"/>
<path d="M13.8913 35.5C13.8913 37.1978 15.2804 38.587 16.9783 38.587H23.1522" stroke="#FF3E1D" stroke-width="3.08696" stroke-linecap="round" stroke-linejoin="round"/>
<path d="M29.326 44.7609H35.5" stroke="#FF3E1D" stroke-width="3.08696" stroke-linecap="round" stroke-linejoin="round"/>
<path d="M26.2391 7.71737L28.4617 3.24128C28.9865 2.19172 30.067 1.54346 31.2091 1.54346H39.7291C40.9022 1.54346 41.9826 2.19172 42.4765 3.24128L44.6991 7.71737" stroke="#FF3E1D" stroke-width="3.08696" stroke-linecap="round" stroke-linejoin="round"/>
<path d="M57.1087 66.3696C65.6331 66.3696 72.5435 59.4592 72.5435 50.9348C72.5435 42.4104 65.6331 35.5 57.1087 35.5C48.5843 35.5 41.6739 42.4104 41.6739 50.9348C41.6739 59.4592 48.5843 66.3696 57.1087 66.3696Z" stroke="#FF3E1D" stroke-width="3.08696" stroke-linecap="round" stroke-linejoin="round"/>
<path d="M49.3913 50.9347L55.5652 57.1086L64.8261 47.8478" stroke="#FF3E1D" stroke-width="3.08696" stroke-linecap="round" stroke-linejoin="round"/>
</svg>
