<svg width="16" height="16" viewBox="0 0 16 16" fill="none" xmlns="http://www.w3.org/2000/svg">
<path fill-rule="evenodd" clip-rule="evenodd" d="M10.3333 6.33333C10.5101 6.33333 10.6797 6.2631 10.8047 6.13807C10.9298 6.01305 11 5.84348 11 5.66667C11 5.48986 10.9298 5.32029 10.8047 5.19526C10.6797 5.07024 10.5101 5 10.3333 5C10.1565 5 9.98695 5.07024 9.86193 5.19526C9.73691 5.32029 9.66667 5.48986 9.66667 5.66667C9.66667 5.84348 9.73691 6.01305 9.86193 6.13807C9.98695 6.2631 10.1565 6.33333 10.3333 6.33333ZM10.3333 7.33333C10.7754 7.33333 11.1993 7.15774 11.5118 6.84518C11.8244 6.53262 12 6.10869 12 5.66667C12 5.22464 11.8244 4.80072 11.5118 4.48816C11.1993 4.17559 10.7754 4 10.3333 4C9.89131 4 9.46738 4.17559 9.15482 4.48816C8.84226 4.80072 8.66667 5.22464 8.66667 5.66667C8.66667 6.10869 8.84226 6.53262 9.15482 6.84518C9.46738 7.15774 9.89131 7.33333 10.3333 7.33333ZM8.83333 11.3333V10C8.83333 9.51377 8.64018 9.04745 8.29636 8.70364C7.95255 8.35982 7.48623 8.16667 7 8.16667H4.33333C3.8471 8.16667 3.38079 8.35982 3.03697 8.70364C2.69315 9.04745 2.5 9.51377 2.5 10V11.3333H3.5V10C3.5 9.54 3.87333 9.16667 4.33333 9.16667H7C7.46 9.16667 7.83333 9.54 7.83333 10V11.3333H8.83333ZM13.5 10V11.3333H12.5V10C12.5 9.54 12.1267 9.16667 11.6667 9.16667H10V8.16667H11.6667C12.1529 8.16667 12.6192 8.35982 12.963 8.70364C13.3068 9.04745 13.5 9.51377 13.5 10ZM6.33333 5.66667C6.33333 5.84348 6.2631 6.01305 6.13807 6.13807C6.01305 6.2631 5.84348 6.33333 5.66667 6.33333C5.48986 6.33333 5.32029 6.2631 5.19526 6.13807C5.07024 6.01305 5 5.84348 5 5.66667C5 5.48986 5.07024 5.32029 5.19526 5.19526C5.32029 5.07024 5.48986 5 5.66667 5C5.84348 5 6.01305 5.07024 6.13807 5.19526C6.2631 5.32029 6.33333 5.48986 6.33333 5.66667ZM7.33333 5.66667C7.33333 6.10869 7.15774 6.53262 6.84518 6.84518C6.53262 7.15774 6.10869 7.33333 5.66667 7.33333C5.22464 7.33333 4.80072 7.15774 4.48816 6.84518C4.17559 6.53262 4 6.10869 4 5.66667C4 5.22464 4.17559 4.80072 4.48816 4.48816C4.80072 4.17559 5.22464 4 5.66667 4C6.10869 4 6.53262 4.17559 6.84518 4.48816C7.15774 4.80072 7.33333 5.22464 7.33333 5.66667Z" fill="#4B5768"/>
</svg>
