<svg width="76" height="72" viewBox="0 0 76 72" fill="none" xmlns="http://www.w3.org/2000/svg">
<path d="M61.8991 13.1301V7.50293C61.8991 4.38921 59.3856 1.87573 56.2719 1.87573H7.50293C4.38921 1.87573 1.87573 4.38921 1.87573 7.50293C1.87573 10.6166 4.38921 13.1301 7.50293 13.1301H61.8991ZM61.8991 13.1301C66.0257 13.1301 69.402 16.5064 69.402 20.633V31.8874" stroke="#FF3E1D" stroke-width="3.75146" stroke-linecap="round" stroke-linejoin="round"/>
<path d="M69.402 50.6447V61.8991C69.402 66.0257 66.0257 69.4021 61.8991 69.4021H9.37866C5.25205 69.4021 1.87573 66.0257 1.87573 61.8991V7.50293" stroke="#FF3E1D" stroke-width="3.75146" stroke-linecap="round" stroke-linejoin="round"/>
<path d="M69.402 31.8875H54.3962C52.3243 31.8875 50.6447 33.567 50.6447 35.6389V46.8933C50.6447 48.9652 52.3243 50.6448 54.3962 50.6448H69.402C71.4739 50.6448 73.1535 48.9652 73.1535 46.8933V35.6389C73.1535 33.567 71.4739 31.8875 69.402 31.8875Z" stroke="#FF3E1D" stroke-width="3.75146" stroke-linecap="round" stroke-linejoin="round"/>
</svg>
