<svg width="57" height="72" viewBox="0 0 57 72" fill="none" xmlns="http://www.w3.org/2000/svg">
<path d="M28.25 32C36.5343 32 43.25 25.2843 43.25 17C43.25 8.71573 36.5343 2 28.25 2C19.9657 2 13.25 8.71573 13.25 17C13.25 25.2843 19.9657 32 28.25 32Z" stroke="#FF3E1D" stroke-width="4" stroke-linecap="round" stroke-linejoin="round"/>
<path d="M39.5 69.5H17" stroke="#FF3E1D" stroke-width="4" stroke-linecap="round" stroke-linejoin="round"/>
<path d="M9.5 69.5C5.375 69.5 2 66.125 2 62V58.25C2 47.9 10.4 39.5 20.75 39.5H35.75C46.1 39.5 54.5 47.9 54.5 58.25V62C54.5 66.125 51.125 69.5 47 69.5" stroke="#FF3E1D" stroke-width="4" stroke-linecap="round" stroke-linejoin="round"/>
<path d="M47 69.5C47 59.15 38.6 50.75 28.25 50.75C17.9 50.75 9.5 59.15 9.5 69.5" stroke="#FF3E1D" stroke-width="4" stroke-linecap="round" stroke-linejoin="round"/>
</svg>
